<?xml version="1.0" encoding="utf-8"?>
<svg version="1.1" id="google" xmlns="http://www.w3.org/2000/svg" x="0px" y="0px"
	 viewBox="0 0 18 17.6" style="enable-background:new 0 0 18 17.6;" xml:space="preserve">
<g transform="scale(0.01953125 0.01953125)">
	<path d="M49,224.9c0,76.5,25.5,131.7,75.9,164.1c41.3,26.6,89.1,30.6,114,30.6c6,0,10.9-0.3,14.3-0.5
		c0,0-7.9,51.4,30.2,102.2h-1.7c-66,0-281.2,13.8-281.2,190.8c0,180,197.7,189.2,237.4,189.2c3.1,0,5-0.1,5-0.1
		c0.4,0,3.2,0.1,8.1,0.1c25.4,0,91.2-3.2,152.3-32.9C482.6,830,522.8,763,522.8,669.5c0-90.3-61.2-144.1-105.9-183.4
		c-27.3-24-50.9-44.7-50.9-64.8c0-20.5,17.3-35.9,39-55.4c35.3-31.5,68.6-76.4,68.6-161.3c0-74.6-9.7-124.7-69.3-156.5
		c6.2-3.2,28.2-5.5,39.1-7c32.3-4.4,79.6-9.4,79.6-35.8V0.2H287.2C284.8,0.3,49,9,49,224.9L49,224.9z M429.2,686.4
		c4.5,72-57.1,125.1-149.6,131.8c-94,6.9-171.3-35.4-175.8-107.3c-2.2-34.6,13-68.4,42.8-95.4c30.2-27.3,71.6-44.2,116.6-47.5
		c5.3-0.3,10.6-0.6,15.9-0.6C366,567.4,424.9,618.5,429.2,686.4z M367.7,175.6c23.1,81.3-11.8,166.2-67.4,181.9
		c-6.4,1.8-13,2.7-19.7,2.7c-50.9,0-101.3-51.5-120.1-122.5c-10.4-39.7-9.6-74.7,2.4-108.1c11.7-33,32.9-55.2,59.5-62.7
		c6.4-1.8,13-2.7,19.7-2.7C303.7,64.1,343.2,89.6,367.7,175.6z M766.4,348.3V194.7H664v153.6H510.4v102.4H664v153.6h102.4V450.7H920
		V348.3H766.4z"/>
</g>
</svg>
