<?xml version="1.0" encoding="utf-8"?>
<svg version="1.1" id="inst" xmlns="http://www.w3.org/2000/svg" x="0px" y="0px"
	 viewBox="0 0 18 18" style="enable-background:new 0 0 18 18;" xml:space="preserve">
<g transform="scale(0.01953125 0.01953125)">
	<path d="M819.8,0.8H103C46.7,0.8,0.6,46.9,0.6,103.2V820c0,56.4,46.1,102.4,102.4,102.4h716.8
		c56.3,0,102.4-46,102.4-102.4V103.2C922.2,46.9,876.1,0.8,819.8,0.8z M460.6,744.4c156.6,0,283.5-127,283.5-283.6
		c0-17.3-2.2-34-5.3-50.4h80.9v369.5c0,19.6-15.9,35.3-35.5,35.3H138.5c-19.6,0-35.5-15.8-35.5-35.3V410.4h79.3
		c-3.1,16.4-5.3,33.1-5.3,50.4C177,617.4,304,744.4,460.6,744.4L460.6,744.4z M283.4,460.8c0-97.9,79.4-177.2,177.3-177.2
		c97.8,0,177.3,79.3,177.3,177.2s-79.4,177.3-177.3,177.3C362.7,638.1,283.4,558.7,283.4,460.8z M784.3,256.8h-82.7
		c-19.6,0-35.4-16-35.4-35.4v-82.8c0-19.6,15.9-35.4,35.4-35.4h82.7c19.7,0,35.5,15.8,35.5,35.4v82.7
		C819.8,240.8,803.9,256.8,784.3,256.8L784.3,256.8z"/>
</g>
</svg>
