<?xml version="1.0" encoding="utf-8"?>
<svg version="1.1" id="pint" xmlns="http://www.w3.org/2000/svg" x="0px" y="0px"
	 viewBox="0 0 15.6 20" style="enable-background:new 0 0 15.6 20;" xml:space="preserve">
<g transform="scale(0.01953125 0.01953125)">
	<path d="M329.1,678.8c-26.9,141-59.8,276.2-157.1,346.8c-30-213.1,44.1-373.1,78.5-543
		C191.8,383.8,257.6,185,381.3,234c152.3,60.2-131.9,367.2,58.9,405.6c199.2,40,280.5-345.6,157-471
		C418.8-12.5,77.7,164.4,119.7,423.7c10.2,63.4,75.7,82.6,26.2,170.1C31.7,568.5-2.4,478.4,2,358.3C9,161.7,178.6,24.1,348.6,5
		c215.1-24.1,417,79,444.9,281.3c31.4,228.4-97.1,475.8-327.1,458C404,739.5,377.9,708.5,329.1,678.8L329.1,678.8z"/>
</g>
</svg>
