<?xml version="1.0" encoding="utf-8"?>
<svg version="1.1" id="pint_big" xmlns="http://www.w3.org/2000/svg" x="0px" y="0px"
	 viewBox="0 0 32 32" enable-background="new 0 0 32 32" xml:space="preserve">
<g transform="scale(0.03125 0.03125)">
	<path fill="#FFFFFF" d="M512.7,0C230.2,0,1.2,229,1.2,511.4c0,216.7,134.7,401.8,325,476.2c-4.5-40.5-8.5-102.5,1.7-146.7
		c9.3-40,60-254.2,60-254.2s-15.3-30.7-15.3-76c0-71,41.3-124.2,92.5-124.2c43.7,0,64.8,32.8,64.8,72c0,43.9-27.9,109.5-42.3,170.3
		c-12.2,50.9,25.6,92.4,75.7,92.4c90.8,0,160.8-95.8,160.8-234.1c0-122.1-88-207.7-213.7-207.7c-145.5,0-230.8,109.3-230.8,221.8
		c0,44.1,16.8,91.4,37.9,116.9c4.2,5.1,4.8,9.6,3.6,14.7c-3.8,16-12.5,51.2-14.3,58.2c-2.3,9.6-7.3,11.6-17.1,7
		c-63.8-29.4-103.8-122.8-103.8-198.2c0-161.1,117.2-309.4,337.9-309.4c177.4,0,315.4,126.6,315.4,295.4
		c0,176.4-111.2,318.4-265.9,318.4c-51.8,0-100.4-26.8-117.7-58.8l-32,121.5c-11.5,44.6-42.8,100.4-63.9,134.2
		c47.9,14.7,98.4,22.8,151.5,22.8c281.9,0,511.4-228.9,511.4-511.4C1022.7,230,793.3,1.1,511.4,1.1C511.4,1.1,512.7,0,512.7,0z"/>
</g>
</svg>
