<?xml version="1.0" encoding="utf-8"?>
<svg version="1.1" id="rss" xmlns="http://www.w3.org/2000/svg" x="0px" y="0px"
	 viewBox="0 0 15.2 15.2" style="enable-background:new 0 0 15.2 15.2;" xml:space="preserve">
<g transform="scale(0.01953125 0.01953125)">
	<path d="M0.7,0.5v121.2c362.8,0,656.9,294.2,656.9,657h121.3C778.9,348.9,430.4,0.5,0.7,0.5L0.7,0.5z M0.7,243v121.3
		c228.8,0,414.4,185.5,414.4,414.4h121.2C536.3,482.9,296.4,243,0.7,243L0.7,243z M116.8,546.2c-64.2,0-116.2,52.1-116.2,116.3
		s52,116.2,116.2,116.2S233,726.7,233,662.5S181,546.2,116.8,546.2z"/>
</g>
</svg>
