<?xml version="1.0" encoding="utf-8"?>
<svg version="1.1" id="search" xmlns="http://www.w3.org/2000/svg" x="0px" y="0px"
	 viewBox="0 0 26 25.9" enable-background="new 0 0 26 25.9" xml:space="preserve">
<g transform="scale(0.02734375 0.02734375)">
	<path fill="#FFFFFF" d="M658.3,400c0-141.1-114.9-256-256-256s-256,114.9-256,256s114.9,256,256,256S658.3,541.1,658.3,400z
		 M950.8,875.4c0,40-33.1,73.1-73.1,73.1c-19.4,0-38.3-8-51.4-21.7l-196-195.4c-66.9,46.3-146.9,70.9-228,70.9
		C180,802.3,0,622.3,0,400S180-2.3,402.3-2.3s402.3,180,402.3,402.3c0,81.1-24.6,161.1-70.9,228l196,196
		C942.8,837.1,950.8,856,950.8,875.4z"/>
</g>
</svg>
