<?xml version="1.0" encoding="utf-8"?>
<svg version="1.1" id="tumb" xmlns="http://www.w3.org/2000/svg" x="0px" y="0px"
	 viewBox="0 0 11.2 18.4" style="enable-background:new 0 0 11.2 18.4;" xml:space="preserve">
<g transform="scale(0.01953125 0.01953125)">
	<path d="M573.9,891.1c-39.8,19-75.8,32.3-108,40c-32.3,7.6-67.1,11.4-104.6,11.4c-42.5,0-80.2-5.5-112.9-16.3
		c-32.7-10.9-60.6-26.4-83.7-46.5c-23.1-20.2-39.1-41.6-48-64.2c-8.9-22.7-13.4-55.6-13.4-98.6V386.5H0.4V253.1
		c36.6-12,67.9-29.2,94-51.7c26.1-22.4,47-49.4,62.8-80.9C173,89.1,183.8,49,189.7,0.5h132.4v238.2H543v147.8H322.1v241.6
		c0,54.6,2.9,89.7,8.6,105.2c5.7,15.5,16.3,27.9,31.8,37.1c20.6,12.5,44.2,18.8,70.7,18.8c47.1,0,94-15.5,140.6-46.5L573.9,891.1
		L573.9,891.1z"/>
</g>
</svg>
