<?xml version="1.0" encoding="utf-8"?>
<svg version="1.1" id="tw" xmlns="http://www.w3.org/2000/svg" x="0px" y="0px"
	 viewBox="0 0 18.4 15" style="enable-background:new 0 0 18.4 15;" xml:space="preserve">
<g transform="scale(0.01953125 0.01953125)">
	<path d="M845.6,192.9c0.4,8.3,0.6,16.7,0.6,25c0,255.5-194.4,550-549.9,550c-109.2,0-210.7-32-296.3-86.9
		c15.2,1.8,30.5,2.7,46.1,2.7c90.6,0,173.9-30.9,240-82.7c-84.5-1.6-156-57.4-180.5-134.2c11.8,2.2,23.9,3.4,36.4,3.4
		c17.7,0,34.8-2.3,50.9-6.7c-88.4-17.8-155-95.9-155-189.6c0-0.8,0-1.6,0-2.4c26.1,14.5,55.9,23.2,87.6,24.2
		c-51.9-34.7-86-93.8-86-160.9c0-35.4,9.5-68.6,26.2-97.2c95.3,117,237.8,193.9,398.4,202c-3.3-14.2-5-28.9-5-44.1
		C459,88.8,545.5,2.3,652.2,2.3c55.6,0,105.8,23.4,141.1,61c44-8.7,85.4-24.8,122.7-46.9c-14.4,45.1-45.1,83-85,106.9
		c39.1-4.7,76.3-15,111-30.4C916.2,131.7,883.4,165.7,845.6,192.9L845.6,192.9z"/>
</g>
</svg>
