<?xml version="1.0" encoding="utf-8"?>
<svg version="1.1" id="ytb" xmlns="http://www.w3.org/2000/svg" x="0px" y="0px"
	 viewBox="0 0 23.2 28" enable-background="new 0 0 23.2 28" xml:space="preserve">
<g transform="scale(0.02734375 0.02734375)">
	<path fill="#FFFFFF" d="M540.2,710.9v120.6c0,25.7-7.4,38.3-22.3,38.3c-8.6,0-17.1-4-25.7-12.6v-172c8.6-8.6,17.1-12.6,25.7-12.6
		C532.8,672.6,540.2,685.7,540.2,710.9L540.2,710.9z M733.4,711.4v26.3h-51.4v-26.3c0-25.7,8.6-38.9,25.7-38.9
		C724.8,672.6,733.4,685.7,733.4,711.4L733.4,711.4z M181.4,586.9h61.1v-53.7H64.2v53.7h60V912h57.1
		C181.4,912,181.4,586.9,181.4,586.9z M345.9,912h50.9V629.7h-50.9v216c-11.4,16-22.3,24-32.6,24c-6.9,0-10.9-4-12-12
		c-0.6-1.7-0.6-8-0.6-20v-208h-50.9v223.4c0,20,1.7,33.1,4.6,41.7c4.6,14.3,16.6,21.1,33.1,21.1c18.3,0,37.7-11.4,58.3-34.9
		L345.9,912L345.9,912z M591.1,827.4V714.9c0-26.3-1.1-45.1-5.1-56.6c-6.3-21.1-20.6-32-40.6-32c-18.9,0-36.6,10.3-53.1,30.9v-124
		h-50.9V912h50.9v-27.4c17.1,21.1,34.9,31.4,53.1,31.4c20,0,34.3-10.9,40.6-31.4C589.9,872.6,591.1,853.7,591.1,827.4z M784.2,821.7
		v-7.4h-52c0,20.6-0.6,32-1.1,34.9c-2.9,13.7-10.3,20.6-22.9,20.6c-17.7,0-26.3-13.1-26.3-39.4v-49.7h102.3v-58.9
		c0-30.3-5.1-52-15.4-66.3c-14.9-19.4-34.9-29.1-60.6-29.1c-26.3,0-46.3,9.7-61.1,29.1c-10.9,14.3-16,36-16,66.3v98.9
		c0,30.3,5.7,52.6,16.6,66.3c14.9,19.4,34.9,29.1,61.7,29.1s48-10.3,61.7-30.3c6.3-9.1,10.9-19.4,12-30.9
		C784.2,849.7,784.2,838.3,784.2,821.7L784.2,821.7z M436.8,300V180c0-26.3-7.4-39.4-24.6-39.4c-16.6,0-24.6,13.1-24.6,39.4v120
		c0,26.3,8,40,24.6,40C429.4,340,436.8,326.3,436.8,300z M847.6,729.1c0,65.7-0.6,136-14.9,200c-10.9,45.1-47.4,78.3-91.4,82.9
		c-105.1,12-211.4,12-317.1,12s-212,0-317.1-12c-44-4.6-81.1-37.7-91.4-82.9c-14.9-64-14.9-134.3-14.9-200l0,0
		c0-66.3,0.6-136,14.9-200c10.9-45.1,47.4-78.3,92-83.4c104.6-11.4,210.9-11.4,316.6-11.4s212,0,317.1,11.4
		c44,5.1,81.1,38.3,91.4,83.4C847.6,593.1,847.6,662.9,847.6,729.1L847.6,729.1z M277.4,0h58.3l-69.1,228v154.9h-57.1V228
		c-5.1-28-16.6-68-34.9-121.1C161.9,71.4,149.4,35.4,137.4,0h60.6l40.6,150.3L277.4,0z M488.8,190.3v100c0,30.3-5.1,53.1-16,67.4
		c-14.3,19.4-34.3,29.1-60.6,29.1c-25.7,0-45.7-9.7-60-29.1c-10.9-14.9-16-37.1-16-67.4v-100c0-30.3,5.1-52.6,16-66.9
		c14.3-19.4,34.3-29.1,60-29.1c26.3,0,46.3,9.7,60.6,29.1C483.7,137.7,488.8,160,488.8,190.3z M680.2,97.7v285.1h-52v-31.4
		c-20.6,24-40,35.4-58.9,35.4c-16.6,0-28.6-6.9-33.7-21.1c-2.9-8.6-4.6-22.3-4.6-42.9V97.7h52v209.7c0,12,0,18.9,0.6,20
		c1.1,8,5.1,12.6,12,12.6c10.3,0,21.1-8,32.6-24.6V97.7C628.2,97.7,680.2,97.7,680.2,97.7z"/>
</g>
</svg>
