<?xml version="1.0" encoding="utf-8"?>
<svg version="1.1" id="ytb_active" xmlns="http://www.w3.org/2000/svg" x="0px" y="0px"
	 viewBox="0 0 17.3 20.4" enable-background="new 0 0 17.3 20.4" xml:space="preserve">
<g id="OC_2">
	<g>
		<path fill="#D81B13" d="M14.3,13.6c-0.2,0-0.3,0-0.3,0.1c-0.1,0.1-0.1,0.2-0.1,0.5v0.5h0.9v-0.5c0-0.2,0-0.4-0.1-0.5
			C14.6,13.7,14.4,13.6,14.3,13.6z"/>
		<path fill="#D81B13" d="M10.8,13.6c-0.1,0-0.1,0-0.2,0s-0.1,0.1-0.2,0.2V17c0.1,0.1,0.2,0.1,0.2,0.2c0.1,0,0.2,0.1,0.2,0.1
			c0.1,0,0.2,0,0.3-0.1c0.1-0.1,0.1-0.2,0.1-0.4v-2.7c0-0.2,0-0.3-0.1-0.4C11,13.6,10.9,13.6,10.8,13.6z"/>
		<path fill="#D81B13" d="M16.4,9.6c-0.8-0.8-7.8-0.8-7.8-0.8s-7,0-7.8,0.8S0,14.5,0,14.6c0,0,0,4.1,0.8,5c0.8,0.7,7.8,0.8,7.8,0.8
			s7,0,7.8-0.8c0.8-0.8,0.8-5,0.8-5C17.3,14.5,17.3,10.4,16.4,9.6z M5.3,12H4.1v6H3v-6H1.8v-1h3.5V12z M8.6,18h-1v-0.6
			c-0.2,0.2-0.4,0.4-0.6,0.5c-0.2,0.1-0.4,0.2-0.6,0.2c-0.2,0-0.4-0.1-0.5-0.2c-0.1-0.2-0.2-0.4-0.2-0.7v-4.3h1v3.9
			c0,0.1,0,0.2,0.1,0.3c0,0.1,0.1,0.1,0.2,0.1c0.1,0,0.2,0,0.3-0.1s0.2-0.2,0.3-0.3v-3.9h1V18z M12.3,16.9c0,0.4-0.1,0.6-0.2,0.8
			c-0.2,0.2-0.4,0.3-0.7,0.3c-0.2,0-0.4,0-0.5-0.1c-0.2-0.1-0.3-0.2-0.4-0.3V18h-1v-7h1v2.2c0.1-0.2,0.3-0.3,0.4-0.4
			c0.2-0.1,0.3-0.1,0.5-0.1c0.3,0,0.6,0.1,0.7,0.3c0.2,0.2,0.3,0.5,0.3,1L12.3,16.9L12.3,16.9z M15.8,15.5h-1.9v1
			c0,0.3,0,0.5,0.1,0.6s0.2,0.2,0.3,0.2c0.2,0,0.3,0,0.4-0.1s0.1-0.3,0.1-0.6v-0.2h1v0.3c0,0.5-0.1,0.9-0.4,1.2
			c-0.3,0.3-0.6,0.4-1.1,0.4s-0.8-0.1-1.1-0.4c-0.3-0.3-0.4-0.7-0.4-1.2v-2.5c0-0.4,0.1-0.8,0.4-1.1c0.3-0.3,0.7-0.4,1.1-0.4
			c0.5,0,0.8,0.1,1.1,0.4s0.4,0.6,0.4,1.1V15.5z"/>
		<path fill="#1D1D1B" d="M14.3,7.7h-1.1V7.1c-0.2,0.2-0.4,0.4-0.7,0.5c-0.2,0.1-0.4,0.2-0.7,0.2c-0.3,0-0.5-0.1-0.6-0.3
			S11,7.1,11,6.7V2h1.1v4.3c0,0.1,0,0.2,0.1,0.3c0,0.1,0.1,0.1,0.2,0.1s0.2,0,0.3-0.1c0.1-0.1,0.2-0.2,0.4-0.3V2h1.1L14.3,7.7
			L14.3,7.7z"/>
		<path fill="#1D1D1B" d="M9.7,2.3C9.4,2,9,1.9,8.5,1.9C8,1.9,7.6,2,7.3,2.3s-0.5,0.6-0.5,1v2.9c0,0.5,0.1,0.9,0.4,1.1
			c0.3,0.3,0.7,0.4,1.2,0.4c0.5,0,0.9-0.1,1.2-0.4C9.9,7,10,6.6,10,6.2V3.4C10.1,2.9,10,2.6,9.7,2.3z M9,6.4c0,0.2,0,0.3-0.1,0.4
			C8.8,6.9,8.7,6.9,8.5,6.9c-0.2,0-0.3,0-0.3-0.1C8.1,6.7,8.1,6.6,8.1,6.4V3.3c0-0.1,0-0.2,0.1-0.3s0.2-0.1,0.3-0.1s0.3,0,0.4,0.1
			S9,3.2,9,3.3V6.4L9,6.4z"/>
		<polygon fill="#1D1D1B" points="3.7,0 2.4,0 3.9,4.7 3.9,7.7 5.2,7.7 5.2,4.5 6.7,0 5.4,0 4.6,3.1 4.5,3.1 		"/>
	</g>
</g>
</svg>
